<svg width="20" height="19" viewBox="0 0 20 19" fill="none" xmlns="http://www.w3.org/2000/svg">
<path fill-rule="evenodd" clip-rule="evenodd" d="M9.375 2.625V0.75C9.375 0.404822 9.65482 0.125 10 0.125C10.3452 0.125 10.625 0.404822 10.625 0.75V2.625C10.625 2.97018 10.3452 3.25 10 3.25C9.65482 3.25 9.375 2.97018 9.375 2.625V2.625ZM15 9.5C15 12.2614 12.7614 14.5 10 14.5C7.23858 14.5 5 12.2614 5 9.5C5 6.73858 7.23858 4.5 10 4.5C12.7602 4.50301 14.997 6.73983 15 9.5V9.5ZM13.75 9.5C13.75 7.42893 12.0711 5.75 10 5.75C7.92893 5.75 6.25 7.42893 6.25 9.5C6.25 11.5711 7.92893 13.25 10 13.25C12.0702 13.2478 13.7478 11.5702 13.75 9.5V9.5ZM4.55781 4.94219C4.80203 5.1864 5.19797 5.1864 5.44219 4.94219C5.6864 4.69797 5.6864 4.30203 5.44219 4.05781L4.19219 2.80781C3.94797 2.5636 3.55203 2.5636 3.30781 2.80781C3.0636 3.05203 3.0636 3.44797 3.30781 3.69219L4.55781 4.94219ZM4.55781 14.0578L3.30781 15.3078C3.14983 15.4658 3.08814 15.696 3.14596 15.9119C3.20378 16.1277 3.37235 16.2962 3.58815 16.354C3.80395 16.4119 4.03421 16.3502 4.19219 16.1922L5.44219 14.9422C5.60017 14.7842 5.66186 14.554 5.60404 14.3381C5.54622 14.1223 5.37765 13.9538 5.16185 13.896C4.94605 13.8381 4.71579 13.8998 4.55781 14.0578V14.0578ZM15 5.125C15.1658 5.12513 15.3249 5.05937 15.4422 4.94219L16.6922 3.69219C16.8502 3.53421 16.9119 3.30395 16.854 3.08815C16.7962 2.87235 16.6277 2.70378 16.4119 2.64596C16.196 2.58814 15.9658 2.64983 15.8078 2.80781L14.5578 4.05781C14.3789 4.23657 14.3253 4.50557 14.4221 4.73924C14.5189 4.97292 14.7471 5.1252 15 5.125V5.125ZM15.4422 14.0578C15.198 13.8136 14.802 13.8136 14.5578 14.0578C14.3136 14.302 14.3136 14.698 14.5578 14.9422L15.8078 16.1922C16.052 16.4364 16.448 16.4364 16.6922 16.1922C16.9364 15.948 16.9364 15.552 16.6922 15.3078L15.4422 14.0578ZM3.75 9.5C3.75 9.15482 3.47018 8.875 3.125 8.875H1.25C0.904822 8.875 0.625 9.15482 0.625 9.5C0.625 9.84518 0.904822 10.125 1.25 10.125H3.125C3.47018 10.125 3.75 9.84518 3.75 9.5V9.5ZM10 15.75C9.65482 15.75 9.375 16.0298 9.375 16.375V18.25C9.375 18.5952 9.65482 18.875 10 18.875C10.3452 18.875 10.625 18.5952 10.625 18.25V16.375C10.625 16.0298 10.3452 15.75 10 15.75V15.75ZM18.75 8.875H16.875C16.5298 8.875 16.25 9.15482 16.25 9.5C16.25 9.84518 16.5298 10.125 16.875 10.125H18.75C19.0952 10.125 19.375 9.84518 19.375 9.5C19.375 9.15482 19.0952 8.875 18.75 8.875V8.875Z" fill="white"/>
</svg>
