<svg width="17" height="16" viewBox="0 0 17 16" fill="none" xmlns="http://www.w3.org/2000/svg">
<path fill-rule="evenodd" clip-rule="evenodd" d="M16.2453 9.61172C16.0819 9.448 15.8415 9.3879 15.6203 9.45547C13.1921 10.1895 10.557 9.52815 8.76324 7.73442C6.9695 5.94068 6.30811 3.30554 7.04219 0.877344C7.11033 0.656045 7.05054 0.415208 6.8868 0.251476C6.72307 0.0877443 6.48224 0.0279524 6.26094 0.0960938C4.6133 0.600816 3.16683 1.61234 2.12734 2.98672C0.273169 5.44845 -0.0286098 8.74731 1.34813 11.5046C2.72487 14.2619 5.54311 16.0029 8.625 16C10.3878 16.0054 12.1036 15.4324 13.5094 14.3687C14.8838 13.3293 15.8953 11.8828 16.4 10.2352C16.4673 10.0147 16.4079 9.77511 16.2453 9.61172V9.61172ZM12.7578 13.3703C10.0208 15.4319 6.18347 15.1632 3.76042 12.7403C1.33737 10.3175 1.06837 6.48019 3.12969 3.74297C3.77922 2.8852 4.61896 2.18988 5.58281 1.71172C5.5279 2.09705 5.50023 2.48578 5.5 2.875C5.50474 7.36035 9.13965 10.9953 13.625 11C14.015 10.9999 14.4045 10.9722 14.7906 10.9172C14.312 11.8812 13.6161 12.721 12.7578 13.3703V13.3703Z" fill="white"/>
</svg>
